<?xml version="1.0" encoding="UTF-8" standalone="no"?>
<!-- Created with Inkscape (http://www.inkscape.org/) -->

<svg
   width="149.99998mm"
   height="45.985172mm"
   viewBox="0 0 149.99998 45.985172"
   version="1.1"
   id="svg1"
   xml:space="preserve"
   inkscape:version="1.3.2 (091e20e, 2023-11-25, custom)"
   sodipodi:docname="cabriolet.svg"
   xmlns:inkscape="http://www.inkscape.org/namespaces/inkscape"
   xmlns:sodipodi="http://sodipodi.sourceforge.net/DTD/sodipodi-0.dtd"
   xmlns="http://www.w3.org/2000/svg"
   xmlns:svg="http://www.w3.org/2000/svg"><sodipodi:namedview
     id="namedview1"
     pagecolor="#ffffff"
     bordercolor="#000000"
     borderopacity="0.25"
     inkscape:showpageshadow="2"
     inkscape:pageopacity="0.0"
     inkscape:pagecheckerboard="0"
     inkscape:deskcolor="#d1d1d1"
     inkscape:document-units="mm"
     inkscape:zoom="1.0343421"
     inkscape:cx="626.00178"
     inkscape:cy="305.99161"
     inkscape:window-width="1920"
     inkscape:window-height="1017"
     inkscape:window-x="1272"
     inkscape:window-y="-8"
     inkscape:window-maximized="1"
     inkscape:current-layer="layer1" /><defs
     id="defs1" /><g
     inkscape:label="Vrstva 1"
     inkscape:groupmode="layer"
     id="layer1"
     transform="translate(-36.774777,-104.54833)"><path
       id="path1"
       style="fill:#808080;stroke-width:0.261948;image-rendering:auto"
       d="m 78.394411,117.49739 c -16.564439,0.17908 -33.69574,4.48936 -35.889009,6.17471 -2.896561,1.72574 -5.52811,7.90955 -5.730624,12.71472 0.216789,2.78116 1.105886,5.93102 2.865056,8.05797 h 7.521283 c 0,0 -2.864979,-18.28794 13.408463,-19.67577 5.090052,-0.0222 16.366498,0.88011 15.601766,21.10881 l 67.869584,-0.35813 c -0.55661,-5.00843 -1.1026,-20.44601 12.86256,-20.66627 12.11536,-0.19108 16.96545,8.4703 16.14767,18.8751 l 11.33179,0.19185 c 3.22895,0.25325 2.45251,-10.79436 1.85104,-11.04761 -0.85472,-0.34821 -1.4929,0.27948 -1.74615,0.0895 -0.0925,-1.76843 1.41649,-5.69642 -0.83902,-12.63932 -3.21399,-2.33559 -17.03522,-4.35195 -35.61255,-5.33283 -1.26173,0.0872 -1.19773,1.93629 -1.19773,1.93629 0,0 -0.11892,2.32441 -1.79175,2.54729 -1.62873,0.0662 -17.64045,1.3703 -19.69774,0.42074 -0.37983,-0.68267 -0.19033,-4.92159 -0.56655,-5.24555 -0.1886,-0.16241 -2.8376,0.006 -2.98225,0.14863 -0.3148,0.30974 0.29182,4.61595 -0.14009,5.18901 -1.17695,0.4941 -26.908415,0.21084 -26.908415,0.21084 0,0 0.218659,-2.79314 -0.175916,-3.25874 -0.251697,-0.29701 -6.842292,-0.18226 -6.873269,-0.64437 -0.09385,-1.39993 16.63556,-9.75932 16.63556,-9.75932 0,0 0.54482,-2.01719 -1.31436,-1.98626 -2.01765,0.0536 -24.121555,12.94372 -24.629349,12.9487 z m -16.906989,10.65184 c -6.230879,-2.4e-4 -11.282143,5.01071 -11.282182,11.19214 4.4e-5,6.18143 5.051307,11.19238 11.282182,11.19213 6.230676,-4e-5 11.281625,-5.01091 11.28167,-11.19213 -4e-5,-6.18123 -5.050991,-11.1921 -11.28167,-11.19214 z m 96.163048,0 c -6.23068,0 -11.28169,5.01091 -11.28168,11.19214 0,6.18122 5.051,11.19209 11.28168,11.19213 6.23067,-4e-5 11.28161,-5.01091 11.28166,-11.19213 -4e-5,-6.18123 -5.05099,-11.19214 -11.28166,-11.19214 z"
       sodipodi:nodetypes="ccccccccscccccccccssccsscccccssccsscc" /></g></svg>
