<?xml version="1.0" encoding="UTF-8" standalone="no"?>
<!-- Created with Inkscape (http://www.inkscape.org/) -->

<svg
   width="149.81471mm"
   height="45.92836mm"
   viewBox="0 0 149.81471 45.92836"
   version="1.1"
   id="svg1"
   xml:space="preserve"
   xmlns="http://www.w3.org/2000/svg"
   xmlns:svg="http://www.w3.org/2000/svg"><defs
     id="defs1" /><g
     id="layer1"
     transform="translate(-36.774778,-104.54834)"><path
       id="path1"
       style="fill:#000000;stroke-width:0.261624;image-rendering:auto"
       d="m 78.342999,117.48139 c -16.543977,0.17886 -33.654116,4.48382 -35.844676,6.16709 -2.892983,1.7236 -5.521281,7.89978 -5.723545,12.69901 0.216521,2.77772 1.10452,5.92369 2.861517,8.04802 h 7.511992 c 0,0 -2.86144,-18.26535 13.3919,-19.65147 5.083764,-0.0222 16.34628,0.87902 15.582493,21.08274 l 67.78575,-0.35769 c -0.55593,-5.00224 -1.10124,-20.42075 12.84667,-20.64074 12.10039,-0.19085 16.94449,8.45983 16.12772,18.85178 l 11.31779,0.19161 c 3.22496,0.25294 2.44948,-10.78102 1.84876,-11.03396 -0.85367,-0.34778 -1.49106,0.27914 -1.744,0.0894 -0.0924,-1.76624 1.41474,-5.68938 -0.83798,-12.62371 -3.21002,-2.3327 -17.01418,-4.34657 -35.56856,-5.32624 -1.26017,0.0871 -1.19625,1.9339 -1.19625,1.9339 0,0 -0.11877,2.32154 -1.78954,2.54414 -1.62671,0.0661 -17.61866,1.36861 -19.6734,0.42022 -0.37937,-0.68182 -0.1901,-4.91551 -0.56585,-5.23907 -0.18837,-0.16221 -2.8341,0.006 -2.97857,0.14845 -0.31441,0.30936 0.29146,4.61025 -0.13992,5.1826 -1.17549,0.49349 -26.875173,0.21058 -26.875173,0.21058 0,0 0.218389,-2.78969 -0.175699,-3.25472 -0.251386,-0.29664 -6.83384,-0.18203 -6.864778,-0.64357 -0.09373,-1.3982 16.61501,-9.74726 16.61501,-9.74726 0,0 0.54415,-2.0147 -1.31274,-1.98381 -2.01515,0.0535 -24.091754,12.92773 -24.598921,12.9327 z m -16.886104,10.63869 c -6.223182,-2.4e-4 -11.268206,5.00452 -11.268245,11.17831 4.4e-5,6.17379 5.045067,11.17855 11.268245,11.17831 6.222979,-4e-5 11.267689,-5.00472 11.267734,-11.17831 -4e-5,-6.17359 -5.044752,-11.17827 -11.267734,-11.17831 z m 96.044255,0 c -6.22298,0 -11.26775,5.00472 -11.26774,11.17831 0,6.17359 5.04476,11.17827 11.26774,11.17831 6.22298,-4e-5 11.26768,-5.00472 11.26773,-11.17831 -4e-5,-6.17359 -5.04475,-11.17831 -11.26773,-11.17831 z" /></g></svg>
