<?xml version="1.0" encoding="UTF-8" standalone="no"?>
<!-- Created with Inkscape (http://www.inkscape.org/) -->

<svg
   width="149.81471mm"
   height="49.002823mm"
   viewBox="0 0 149.81471 49.002823"
   version="1.1"
   id="svg1"
   xml:space="preserve"
   xmlns="http://www.w3.org/2000/svg"
   xmlns:svg="http://www.w3.org/2000/svg"><defs
     id="defs1" /><g
     id="layer1"
     transform="translate(-36.774778,-101.47388)"><path
       id="path1"
       style="fill:#000000;stroke-width:0.261624;image-rendering:auto"
       d="m 126.68643,101.48986 c -7.86606,0.0636 -15.86779,0.52855 -18.21073,1.3692 -0.33238,0.0445 -18.060154,4.91839 -28.776124,14.35101 -16.543977,0.17886 -35.010693,4.75514 -37.201253,6.43841 -2.892983,1.7236 -5.521281,7.89978 -5.723545,12.69901 0.216521,2.77772 1.10452,5.92369 2.861517,8.04802 h 7.511992 c 0,0 -2.86144,-18.26535 13.3919,-19.65147 5.083764,-0.0222 16.34628,0.87902 15.582493,21.08274 l 67.78575,-0.35769 c -0.55593,-5.00224 -1.10124,-20.42075 12.84667,-20.64074 12.10039,-0.19085 16.94449,8.45983 16.12772,18.85178 l 11.31779,0.19161 c 3.22496,0.25294 2.44948,-10.78102 1.84876,-11.03396 -0.85367,-0.34778 -1.49106,0.27914 -1.744,0.0894 -0.0924,-1.76624 1.14342,-7.49815 -1.1093,-14.43248 -3.84308,-1.42831 -17.64724,-4.16569 -22.54541,-4.78361 -4.64458,-4.16167 -14.21514,-9.7109 -22.37782,-11.87296 -3.67113,-0.47772 -11.58641,-0.34826 -11.58641,-0.34826 z m 13.7314,6.58035 c 2.99833,1.34574 5.85806,5.4069 6.82216,8.29921 0.15809,1.32793 -5.35727,1.74631 -9.28555,1.8066 -3.86114,0.11977 -5.64094,0.0824 -9.37177,0.019 l 0.70872,-13.0795 c 6.22328,0.0649 8.39121,1.72704 11.12644,2.95469 z m -18.37446,-2.88825 -1.0281,13.23425 -26.344084,0.6298 -0.439702,-2.73071 -4.82881,0.0894 c 3.890071,-4.38191 14.882346,-11.17896 32.640696,-11.22276 z m -60.586475,22.93812 c -6.223182,-2.4e-4 -11.268206,5.00452 -11.268245,11.17831 4.4e-5,6.17379 5.045067,11.17855 11.268245,11.17831 6.222979,-4e-5 11.267689,-5.00472 11.267734,-11.17831 -4e-5,-6.17359 -5.044752,-11.17827 -11.267734,-11.17831 z m 96.044255,0 c -6.22298,0 -11.26775,5.00472 -11.26774,11.17831 0,6.17359 5.04476,11.17827 11.26774,11.17831 6.22298,-4e-5 11.26768,-5.00472 11.26773,-11.17831 -4e-5,-6.17359 -5.04475,-11.17831 -11.26773,-11.17831 z" /></g></svg>
