<?xml version="1.0" encoding="UTF-8" standalone="no"?>
<!-- Created with Inkscape (http://www.inkscape.org/) -->

<svg
   width="195.21062mm"
   height="116.2957mm"
   viewBox="0 0 195.21062 116.2957"
   version="1.1"
   id="svg1"
   xml:space="preserve"
   inkscape:version="1.3.2 (091e20e, 2023-11-25, custom)"
   sodipodi:docname="crossover.svg"
   xmlns:inkscape="http://www.inkscape.org/namespaces/inkscape"
   xmlns:sodipodi="http://sodipodi.sourceforge.net/DTD/sodipodi-0.dtd"
   xmlns="http://www.w3.org/2000/svg"
   xmlns:svg="http://www.w3.org/2000/svg"><sodipodi:namedview
     id="namedview1"
     pagecolor="#ffffff"
     bordercolor="#000000"
     borderopacity="0.25"
     inkscape:showpageshadow="2"
     inkscape:pageopacity="0.0"
     inkscape:pagecheckerboard="0"
     inkscape:deskcolor="#d1d1d1"
     inkscape:document-units="mm"
     inkscape:zoom="1.4627806"
     inkscape:cx="685.33858"
     inkscape:cy="488.45328"
     inkscape:window-width="1920"
     inkscape:window-height="1017"
     inkscape:window-x="-8"
     inkscape:window-y="1192"
     inkscape:window-maximized="1"
     inkscape:current-layer="layer1" /><defs
     id="defs1" /><g
     inkscape:label="Vrstva 1"
     inkscape:groupmode="layer"
     id="layer1"
     transform="translate(-5.7500864,-75.939276)"><path
       id="path1"
       style="fill:#000000;stroke-width:0.264583;image-rendering:auto"
       d="m 147.18326,101.30596 c -7.37555,-0.009 -17.17021,0.21793 -24.59746,0.27802 -7.955,0.0643 -21.08701,1.00245 -23.45645,1.8526 -0.33613,0.045 -18.264439,4.97405 -29.101583,14.51333 -16.097986,0.54264 -32.784083,4.35675 -34.999414,6.05906 -2.925696,1.74309 -5.945462,9.52701 -6.150012,14.38052 0.218968,2.80912 1.478751,6.89502 3.255615,9.04337 l 7.868253,0.18087 c 0,0 -0.451986,-16.1207 14.538131,-16.43724 4.05599,0.15838 15.807664,2.78844 15.396993,16.52819 l 67.557637,0.0904 c -0.56221,-5.05879 1.7855,-16.09043 14.34847,-16.53335 9.61601,-0.24382 16.5031,5.75208 15.58665,16.1711 l 10.74611,-0.34881 c 3.98494,0.0749 2.77173,-14.18518 2.16421,-14.44098 -0.86332,-0.35172 -2.08359,-0.13368 -2.33939,-0.32557 -0.0934,-1.7862 0.70452,-5.32144 -1.12603,-12.11037 -1.41737,-1.77403 -7.9344,-6.55154 -7.9344,-6.55154 0,0 -6.57796,-4.9926 -8.27288,-6.94737 -1.18546,-1.36722 0.86284,-2.56049 -0.53795,-3.94757 -1.01708,-1.00337 -4.52582,-1.2035 -6.55464,-1.35237 -1.74374,-0.0704 -3.93334,-0.0993 -6.39186,-0.10232 z m -19.47013,4.52427 c 1.61645,0.0181 4.12938,0.28996 5.48442,0.38551 1.42787,0.31266 2.30538,0.5812 2.95486,2.11563 1.16107,2.17392 2.6057,8.49145 2.0345,10.70271 -7.24313,0.21259 -18.24836,0.5404 -22.02139,0.47645 l 1.57303,-13.52062 c 0,0 5.12525,-0.21401 9.97458,-0.15968 z m -18.08468,0.0687 c 1.16746,-0.008 2.27612,0.019 3.31246,0.0677 l -1.94407,13.56506 -25.285793,0.54622 0.0078,-3.75636 -4.973857,-0.0904 c 9.63711,-8.46703 20.71133,-10.2737 28.88351,-10.33219 z m 44.10675,1.21698 c 1.25927,-0.45497 3.04432,-0.14181 3.61294,0.0559 0.85639,0.35758 12.10432,9.117 12.11826,10.11198 -0.78543,0.25956 -4.26828,0.0584 -4.79621,-0.19172 -2.03075,-1.49716 -10.53157,-8.40205 -10.93499,-9.97614 z m -15.26562,1.29605 c 1.92681,-0.11795 7.9003,6.15621 7.9003,6.15621 0,0 0.98231,2.83305 0.52761,3.47472 -0.65457,0.43019 -4.89452,0.69066 -5.91488,0.40101 -0.24663,-0.16114 -0.88001,-6.43314 -2.51303,-10.03194 z m -83.002165,26.17876 c -6.293551,-2.4e-4 -11.395646,5.06112 -11.395686,11.30474 4.5e-5,6.24359 5.102139,11.30497 11.395686,11.30473 6.293348,-4e-5 11.395125,-5.06134 11.39517,-11.30473 -4e-5,-6.24342 -5.101819,-11.3047 -11.39517,-11.30474 z m 97.130505,0 c -6.29334,4e-5 -11.39513,5.06132 -11.39517,11.30474 5e-5,6.24339 5.10183,11.30469 11.39517,11.30473 6.29334,-4e-5 11.39512,-5.06134 11.39517,-11.30473 -4e-5,-6.24342 -5.10183,-11.3047 -11.39517,-11.30474 z"
       sodipodi:nodetypes="scccccccccccccccccscccscccccscsccccccscccccccccccccccccccc" /></g></svg>
