<?xml version="1.0" encoding="UTF-8" standalone="no"?>
<!-- Created with Inkscape (http://www.inkscape.org/) -->

<svg
   width="150mm"
   height="55.114944mm"
   viewBox="0 0 150 55.114944"
   version="1.1"
   id="svg1"
   xml:space="preserve"
   inkscape:version="1.3.2 (091e20e, 2023-11-25, custom)"
   sodipodi:docname="crossover.svg"
   inkscape:export-filename="FI\semester4\PV178-C#\MyGarage\MauiApp1\Resources\Images\crossover.svg"
   inkscape:export-xdpi="96"
   inkscape:export-ydpi="96"
   xmlns:inkscape="http://www.inkscape.org/namespaces/inkscape"
   xmlns:sodipodi="http://sodipodi.sourceforge.net/DTD/sodipodi-0.dtd"
   xmlns="http://www.w3.org/2000/svg"
   xmlns:svg="http://www.w3.org/2000/svg"><sodipodi:namedview
     id="namedview1"
     pagecolor="#ffffff"
     bordercolor="#000000"
     borderopacity="0.25"
     inkscape:showpageshadow="2"
     inkscape:pageopacity="0.0"
     inkscape:pagecheckerboard="0"
     inkscape:deskcolor="#d1d1d1"
     inkscape:document-units="mm"
     inkscape:zoom="0.73139031"
     inkscape:cx="822.4063"
     inkscape:cy="637.82633"
     inkscape:window-width="1920"
     inkscape:window-height="1017"
     inkscape:window-x="1272"
     inkscape:window-y="-8"
     inkscape:window-maximized="1"
     inkscape:current-layer="layer1" /><defs
     id="defs1" /><g
     inkscape:label="Vrstva 1"
     inkscape:groupmode="layer"
     id="layer1"
     transform="translate(-28.87834,-101.3057)"><path
       id="path1"
       style="fill:#808080;stroke-width:0.260893;image-rendering:auto"
       d="m 145.53337,101.30596 c -7.27269,-0.009 -16.93075,0.21489 -24.25442,0.27414 -7.84406,0.0634 -20.79293,0.98847 -23.129325,1.82676 -0.331442,0.0444 -18.009722,4.90468 -28.69573,14.31093 -15.873483,0.53507 -32.326875,4.29599 -34.51131,5.97456 -2.884895,1.71878 -5.862547,9.39414 -6.064244,14.17997 0.215914,2.76994 1.458128,6.79886 3.210212,8.91725 l 7.758522,0.17835 c 0,0 -0.445683,-15.89588 14.335381,-16.20801 3.999425,0.15617 15.58721,2.74955 15.182266,16.29769 l 66.615478,0.0891 c -0.55437,-4.98824 1.7606,-15.86604 14.14836,-16.30278 9.48191,-0.24042 16.27295,5.67186 15.36928,15.94558 l 10.59624,-0.34395 c 3.92937,0.0739 2.73308,-13.98735 2.13403,-14.23958 -0.85128,-0.34682 -2.05453,-0.13182 -2.30676,-0.32103 -0.0921,-1.76129 0.69469,-5.24723 -1.11033,-11.94148 -1.3976,-1.74929 -7.82375,-6.46017 -7.82375,-6.46017 0,0 -6.48622,-4.92297 -8.1575,-6.85048 -1.16893,-1.34816 0.8508,-2.52478 -0.53045,-3.89252 -1.0029,-0.98938 -4.4627,-1.18672 -6.46323,-1.33351 -1.71942,-0.0694 -3.87848,-0.0979 -6.30272,-0.10089 z m -19.1986,4.46117 c 1.59391,0.0179 4.0718,0.28592 5.40794,0.38013 1.40795,0.3083 2.27323,0.5731 2.91365,2.08613 1.14488,2.1436 2.56936,8.37303 2.00613,10.55345 -7.14212,0.20962 -17.99387,0.53286 -21.71428,0.4698 l 1.55109,-13.33206 c 0,0 5.05377,-0.21102 9.83547,-0.15745 z m -17.83247,0.0677 c 1.15118,-0.008 2.24438,0.0187 3.26627,0.0668 l -1.91696,13.37588 -24.933155,0.5386 0.0077,-3.70397 -4.904491,-0.0891 c 9.50271,-8.34895 20.422486,-10.13042 28.480696,-10.1881 z m 43.49164,1.20001 c 1.24171,-0.44862 3.00186,-0.13983 3.56255,0.0551 0.84445,0.35259 11.93552,8.98985 11.94926,9.97096 -0.77448,0.25594 -4.20875,0.0576 -4.72932,-0.18905 -2.00243,-1.47628 -10.3847,-8.28487 -10.78249,-9.83701 z m -15.05273,1.27798 c 1.89994,-0.11631 7.79013,6.07035 7.79013,6.07035 0,0 0.96861,2.79354 0.52025,3.42626 -0.64544,0.42419 -4.82626,0.68103 -5.83239,0.39542 -0.24319,-0.15889 -0.86774,-6.34342 -2.47799,-9.89203 z m -81.844608,25.81367 c -6.205781,-2.4e-4 -11.236721,4.99053 -11.236761,11.14708 4.4e-5,6.15652 5.030984,11.14731 11.236761,11.14707 6.205581,-4e-5 11.236208,-4.99075 11.236252,-11.14707 -3.9e-5,-6.15635 -5.030668,-11.14705 -11.236252,-11.14708 z m 95.775918,0 c -6.20557,3e-5 -11.23621,4.99073 -11.23625,11.14708 5e-5,6.15632 5.03068,11.14703 11.23625,11.14707 6.20557,-4e-5 11.2362,-4.99075 11.23625,-11.14707 -4e-5,-6.15635 -5.03068,-11.14705 -11.23625,-11.14708 z"
       sodipodi:nodetypes="scccccccccccccccccscccscccccscsccccccscccccccccccccccccccc" /></g></svg>
