<?xml version="1.0" encoding="UTF-8" standalone="no"?>
<!-- Created with Inkscape (http://www.inkscape.org/) -->

<svg
   width="145.5641mm"
   height="49.573635mm"
   viewBox="0 0 145.5641 49.573635"
   version="1.1"
   id="svg1"
   xml:space="preserve"
   xmlns="http://www.w3.org/2000/svg"
   xmlns:svg="http://www.w3.org/2000/svg"><defs
     id="defs1" /><g
     id="layer1"
     transform="translate(-30.50615,-107.62654)"><path
       id="path1"
       style="fill:#000000;stroke-width:0.264583;image-rendering:auto"
       d="m 121.43469,107.65931 c -7.95502,0.0643 -16.04725,0.53453 -18.41669,1.38468 -0.33613,0.045 -18.264414,4.97402 -29.10158,14.51332 -16.731087,0.18088 -35.406658,4.80892 -37.621993,6.51123 -2.925702,1.74309 -5.583725,7.98912 -5.788277,12.84263 0.21897,2.80914 1.117012,5.99069 2.89388,8.13904 h 7.596952 c 0,0 -2.893803,-18.47192 13.54336,-19.87372 5.14126,-0.0225 16.531153,0.88896 15.758728,21.32118 l 68.5524,-0.36174 c -0.56221,-5.05881 -1.10849,-20.43124 12.99197,-20.87418 12.23873,0.0275 17.13613,8.55551 16.31012,19.06499 l 5.50081,0.19378 c 3.26143,0.2558 2.47718,-10.90295 1.86966,-11.15875 -0.86332,-0.35172 -1.50792,0.28229 -1.76372,0.0904 -0.0934,-1.78622 -0.12411,-10.87557 -2.40231,-17.88832 -5.66947,-7.09614 -19.71389,-12.53671 -23.48058,-13.64381 -6.97499,-0.28145 -16.53971,-0.34085 -26.44273,-0.26073 z m 21.59624,4.1063 c 5.05203,3.32538 5.89377,4.55798 5.89377,4.55798 0,0 2.24864,2.19184 3.52764,6.02882 0.15987,1.34294 -3.39367,1.6635 -7.36638,1.72447 -7.24315,0.21259 -17.96055,0.54047 -21.73358,0.47652 l 0.71674,-13.22743 c 0,0 13.27029,-0.71146 18.96181,0.43964 z m -26.29181,-0.37245 -1.03973,13.38393 -26.642034,0.63692 -0.444675,-2.76159 -4.883423,0.0904 c 3.934067,-4.43147 15.050666,-11.30539 33.009862,-11.34969 z m -61.271703,23.19755 c -6.293565,-2.4e-4 -11.395647,5.06112 -11.395687,11.30474 4.5e-5,6.24361 5.102126,11.30497 11.395687,11.30473 6.29336,-4e-5 11.395125,-5.06132 11.39517,-11.30473 -4e-5,-6.24342 -5.101807,-11.3047 -11.39517,-11.30474 z m 97.130503,0 c -6.29336,4e-5 -11.39513,5.06132 -11.39517,11.30474 5e-5,6.24341 5.10181,11.30469 11.39517,11.30473 6.29336,-4e-5 11.39512,-5.06132 11.39517,-11.30473 -4e-5,-6.24342 -5.10181,-11.3047 -11.39517,-11.30474 z" /></g></svg>
