<?xml version="1.0" encoding="UTF-8" standalone="no"?>
<!-- Created with Inkscape (http://www.inkscape.org/) -->

<svg
   width="150mm"
   height="57.971432mm"
   viewBox="0 0 150 57.971432"
   version="1.1"
   id="svg1"
   xml:space="preserve"
   xmlns="http://www.w3.org/2000/svg"
   xmlns:svg="http://www.w3.org/2000/svg"><defs
     id="defs1" /><g
     id="layer1"
     transform="translate(-30.760396,-99.008946)"><path
       id="path1"
       style="fill:#808080;stroke-width:0.264394;image-rendering:auto"
       d="m 165.40359,99.008944 c -0.92023,0.01189 -70.66454,0.272502 -73.032285,1.122076 -4.057831,-0.27865 -18.30444,7.5993 -31.285814,15.89394 -12.026199,3.33632 -24.671063,7.0102 -26.161821,10.11207 -1.05512,1.05168 -1.717669,9.91787 -1.707843,10.1375 -0.857337,0.3227 -1.946547,0.44727 -2.455431,0.61859 0.218814,2.80712 0.917007,10.8072 2.692606,12.954 0,0 6.836297,0.0776 8.044064,-0.0906 0.244555,-5.74158 -0.491947,-18.75342 13.873574,-18.80709 8.526578,-0.24843 17.204323,6.86286 13.560114,20.96525 l 68.012786,-0.24689 c -1.8205,-10.89093 2.51716,-21.02818 14.63687,-20.98558 7.27144,0.0256 14.98841,8.95518 14.163,19.45712 l 10.5975,-0.4332 c 3.25909,0.25561 4.90212,-11.81164 4.29504,-12.06725 -0.8627,-0.35147 -2.50079,-0.3501 -2.75641,-0.54185 -0.0933,-1.78495 1.81608,-3.7137 -0.46048,-10.72142 -0.5039,-2.8242 -7.68856,-20.31506 -10.74961,-22.69943 -0.40026,-0.0862 -0.95115,-0.30925 -0.83497,-0.48591 0,0 0.14548,-3.788638 -0.43089,-4.181306 z m -60.56928,3.714356 0.64172,0.10355 c 0.28395,1.44241 -2.14383,16.61381 -2.14383,16.61381 l -26.834505,0.23578 c 0,0 0.475016,-3.37139 0.13084,-3.58999 -0.325968,-0.20702 -5.016939,0.54147 -4.880348,0.0906 0.476614,-1.57311 15.264404,-11.65845 21.043372,-12.23878 0,0 7.512871,-1.23997 12.042751,-1.21499 z m 5.47398,0.21313 c 0,0 17.27195,0.11717 22.14603,0.13777 1.07086,1.58348 0.9057,12.88355 0.49792,15.17133 -7.05344,0.61289 -17.34193,0.82599 -25.19462,0.87104 z m 26.84128,0.62277 c 1.65234,-1.09067 13.27889,0.88722 16.38445,2.14389 3.46428,1.75119 10.53768,9.00076 10.19478,10.31615 -1.12874,1.27889 -24.60871,2.39597 -26.66035,1.73977 -0.15022,-1.26305 -0.35754,-12.70459 0.0811,-14.19981 z m -80.852422,30.80128 c -6.28905,-2.3e-4 -11.387591,5.05742 -11.38763,11.29655 4.5e-5,6.23914 5.098585,11.29726 11.38763,11.29702 6.288843,-4e-5 11.387122,-5.05808 11.387166,-11.29702 -3.9e-5,-6.23893 -5.09832,-11.29651 -11.387166,-11.29655 z m 94.207892,0.0268 c -6.28885,0 -11.38718,5.05761 -11.38717,11.29655 0,6.23894 5.09832,11.29651 11.38717,11.29655 6.28885,-4e-5 11.38711,-5.05761 11.38716,-11.29655 -4e-5,-6.23894 -5.09831,-11.29655 -11.38716,-11.29655 z" /></g></svg>
