<?xml version="1.0" encoding="UTF-8" standalone="no"?>
<!-- Created with Inkscape (http://www.inkscape.org/) -->

<svg
   width="139.96851mm"
   height="52.470711mm"
   viewBox="0 0 139.96851 52.470711"
   version="1.1"
   id="svg1"
   xml:space="preserve"
   inkscape:version="1.3.2 (091e20e, 2023-11-25, custom)"
   sodipodi:docname="pickup.svg"
   inkscape:export-filename="FI\semester4\PV178-C#\MyGarage\MauiApp1\Resources\Images\pickup.svg"
   inkscape:export-xdpi="96"
   inkscape:export-ydpi="96"
   xmlns:inkscape="http://www.inkscape.org/namespaces/inkscape"
   xmlns:sodipodi="http://sodipodi.sourceforge.net/DTD/sodipodi-0.dtd"
   xmlns="http://www.w3.org/2000/svg"
   xmlns:svg="http://www.w3.org/2000/svg"><sodipodi:namedview
     id="namedview1"
     pagecolor="#ffffff"
     bordercolor="#000000"
     borderopacity="0.25"
     inkscape:showpageshadow="2"
     inkscape:pageopacity="0.0"
     inkscape:pagecheckerboard="0"
     inkscape:deskcolor="#d1d1d1"
     inkscape:document-units="mm"
     inkscape:zoom="1.4627806"
     inkscape:cx="420.09033"
     inkscape:cy="429.66115"
     inkscape:window-width="1920"
     inkscape:window-height="1017"
     inkscape:window-x="-8"
     inkscape:window-y="1192"
     inkscape:window-maximized="1"
     inkscape:current-layer="layer1" /><defs
     id="defs1" /><g
     inkscape:label="Vrstva 1"
     inkscape:groupmode="layer"
     id="layer1"
     transform="translate(-39.140763,-98.005895)"><path
       id="path1"
       style="fill:#000000;stroke-width:0.261624;image-rendering:auto"
       d="m 113.22513,98.023991 c -7.54399,-0.107592 -22.3201,0.298777 -23.712764,0.321944 -2.015146,0.0535 -18.016252,13.566815 -18.523417,13.571785 -15.456802,0.43466 -26.683651,3.9722 -28.874207,5.65547 -1.44649,0.86178 -0.764662,9.32768 -0.513664,11.6551 -0.708242,0.21709 -2.359183,-0.46057 -2.460315,0.72398 0.216521,2.77772 -0.429942,7.39499 1.327051,9.51932 0,0 5.463144,0.22046 6.488493,0.0636 0.32246,-6.11569 4.488943,-14.22371 13.583667,-14.79134 8.158657,0.33956 14.537568,4.40616 14.859041,14.8425 l 60.189095,0.185 c 0.25801,-4.91178 1.43425,-13.12805 13.20849,-15.12414 15.44079,0.63117 15.0425,14.96343 15.0425,14.96343 0,0 10.30614,1.45903 13.75936,-0.9617 2.12219,-0.64124 1.5681,-9.10773 0.96738,-9.36067 -0.85365,-0.34778 -1.40018,6e-4 -1.65312,-0.18913 -0.0924,-1.76624 0.9391,-8.37277 -1.31362,-15.30708 -1.53751,-1.53175 -52.05328,-0.0253 -55.28138,-0.006 -0.0937,-1.3982 -1.76987,-14.696029 -2.72283,-15.449703 -0.14403,-0.183204 -1.85509,-0.276262 -4.36976,-0.312126 z m -7.9395,2.690309 c -0.43648,4.21558 -1.06768,8.43117 -1.61105,12.64675 -6.799553,0.0491 -14.143497,-0.12087 -20.921622,-0.0297 0.105105,-0.9018 0.142431,-1.8036 0.0074,-2.70539 -1.233511,-0.0426 -2.467022,-0.0853 -3.700533,-0.1279 3.134424,-4.05118 7.738262,-6.97636 10.620071,-9.65278 5.216969,-0.39033 10.277511,-0.18546 15.605694,-0.13098 z m 3.42866,-0.0654 c 1.48486,-0.10247 3.40782,-0.0919 4.71435,0.1465 0.54511,3.58856 0.39989,11.44541 0.27332,12.73852 -1.65603,0.0909 -4.54638,0.21191 -5.9401,0.0419 0.11221,-3.05124 0.36444,-9.17649 0.95243,-12.92691 z m 40.82852,27.29007 c -6.22296,0 -11.26806,5.00506 -11.26805,11.17865 0,6.17357 5.04509,11.17809 11.26805,11.17813 6.22296,-4e-5 11.26748,-5.00456 11.26753,-11.17813 -4e-5,-6.17359 -5.04457,-11.17865 -11.26753,-11.17865 z m -88.086096,0.18087 c -6.22317,-2.4e-4 -11.268007,5.00487 -11.268046,11.17864 4.4e-5,6.17379 5.04488,11.17837 11.268046,11.17813 6.222967,-4e-5 11.268001,-5.00454 11.268046,-11.17813 -4e-5,-6.17357 -5.045076,-11.1786 -11.268046,-11.17864 z"
       sodipodi:nodetypes="cccccccccccccccccccsccccccccccccccccscccccc" /></g></svg>
