<?xml version="1.0" encoding="UTF-8" standalone="no"?>
<!-- Created with Inkscape (http://www.inkscape.org/) -->

<svg
   width="150mm"
   height="56.231266mm"
   viewBox="0 0 150 56.231266"
   version="1.1"
   id="svg1"
   xml:space="preserve"
   xmlns="http://www.w3.org/2000/svg"
   xmlns:svg="http://www.w3.org/2000/svg"><defs
     id="defs1" /><g
     id="layer1"
     transform="translate(-39.140763,-98.005895)"><path
       id="path1"
       style="fill:#808080;stroke-width:0.280374;image-rendering:auto"
       d="m 118.53473,98.025288 c -8.08467,-0.115303 -23.919775,0.32019 -25.412251,0.345017 -2.159571,0.05733 -19.30747,14.539145 -19.850983,14.544475 -16.564585,0.46581 -28.596058,4.25688 -30.94361,6.06079 -1.550159,0.92354 -0.819465,9.99619 -0.550478,12.49042 -0.759002,0.23265 -2.528265,-0.49358 -2.636645,0.77586 0.232039,2.9768 -0.460756,7.92499 1.42216,10.20157 0,0 5.854686,0.23626 6.953521,0.0682 0.345571,-6.554 4.810664,-15.24312 14.557203,-15.85143 8.743385,0.36389 15.57947,4.72195 15.923983,15.90625 l 64.50282,0.19826 c 0.27651,-5.2638 1.53705,-14.06893 14.15514,-16.20808 16.54743,0.67641 16.12059,16.03586 16.12059,16.03586 0,0 11.04478,1.56359 14.74549,-1.03063 2.27429,-0.6872 1.68048,-9.76048 1.03671,-10.03154 -0.91483,-0.37271 -1.50053,6.4e-4 -1.7716,-0.20269 -0.099,-1.89283 1.00641,-8.97284 -1.40776,-16.40413 -1.64771,-1.64153 -55.78392,-0.0271 -59.24338,-0.006 -0.10041,-1.49841 -1.89672,-15.749289 -2.91797,-16.556979 -0.15436,-0.196334 -1.98805,-0.296062 -4.68294,-0.334496 z m -8.50852,2.883122 c -0.46777,4.51771 -1.1442,9.03543 -1.72652,13.55314 -7.28687,0.0526 -15.157152,-0.12953 -22.421063,-0.0318 0.112638,-0.96643 0.152639,-1.93286 0.0079,-2.89928 -1.321916,-0.0457 -2.643832,-0.0914 -3.965748,-0.13707 3.359067,-4.34153 8.29286,-7.47635 11.381207,-10.34459 5.590867,-0.41831 11.014094,-0.19875 16.724144,-0.14037 z m 3.67439,-0.0701 c 1.59128,-0.10981 3.65205,-0.0985 5.05222,0.157 0.58418,3.84575 0.42855,12.2657 0.29291,13.65149 -1.77472,0.0974 -4.87222,0.22709 -6.36582,0.0449 0.12025,-3.26992 0.39056,-9.83417 1.02069,-13.85338 z m 43.75468,29.24594 c -6.66896,0 -12.07564,5.36377 -12.07563,11.97982 0,6.61603 5.40667,11.97922 12.07563,11.97926 6.66896,-4e-5 12.07502,-5.36323 12.07507,-11.97926 -4e-5,-6.61605 -5.40611,-11.97982 -12.07507,-11.97982 z m -94.399191,0.19383 c -6.669182,-2.5e-4 -12.07558,5.36357 -12.075622,11.97981 4.7e-5,6.61627 5.406445,11.97952 12.075622,11.97927 6.668965,-5e-5 12.075575,-5.36322 12.075623,-11.97927 -4.3e-5,-6.61602 -5.406655,-11.97976 -12.075623,-11.97981 z" /></g></svg>
