<?xml version="1.0" encoding="UTF-8" standalone="no"?>
<!-- Created with Inkscape (http://www.inkscape.org/) -->

<svg
   width="150mm"
   height="48.640022mm"
   viewBox="0 0 150 48.640022"
   version="1.1"
   id="svg1"
   xml:space="preserve"
   inkscape:version="1.3.2 (091e20e, 2023-11-25, custom)"
   sodipodi:docname="sedan.svg"
   inkscape:export-filename="sedan.svg"
   inkscape:export-xdpi="62.912842"
   inkscape:export-ydpi="62.912842"
   xmlns:inkscape="http://www.inkscape.org/namespaces/inkscape"
   xmlns:sodipodi="http://sodipodi.sourceforge.net/DTD/sodipodi-0.dtd"
   xmlns="http://www.w3.org/2000/svg"
   xmlns:svg="http://www.w3.org/2000/svg"><sodipodi:namedview
     id="namedview1"
     pagecolor="#ffffff"
     bordercolor="#000000"
     borderopacity="0.25"
     inkscape:showpageshadow="2"
     inkscape:pageopacity="0.0"
     inkscape:pagecheckerboard="0"
     inkscape:deskcolor="#d1d1d1"
     inkscape:document-units="mm"
     inkscape:zoom="1.0343421"
     inkscape:cx="347.56392"
     inkscape:cy="484.84926"
     inkscape:window-width="1920"
     inkscape:window-height="1017"
     inkscape:window-x="1272"
     inkscape:window-y="-8"
     inkscape:window-maximized="1"
     inkscape:current-layer="layer1"
     inkscape:export-bgcolor="#ffffff09" /><defs
     id="defs1" /><g
     inkscape:label="Vrstva 1"
     inkscape:groupmode="layer"
     id="layer1"
     transform="translate(-29.482955,-109.76595)"><path
       id="path1"
       style="fill:#808080;stroke-width:0.261444;image-rendering:auto"
       d="m 119.46514,109.76646 c -7.86081,-0.013 -15.99067,0.21539 -18.33192,1.05544 -0.3322,0.0446 -18.047394,4.91497 -28.755795,14.34094 -16.532289,0.17872 -34.985953,4.75177 -37.174969,6.43381 -2.890944,1.72239 -5.51738,7.89417 -5.719501,12.69005 0.216375,2.7758 1.103741,5.91953 2.859497,8.04225 h 7.506681 c 0,0 -2.859425,-18.2524 13.382443,-19.63747 5.080169,-0.0223 16.334733,0.87827 15.571485,21.06778 l 67.737889,-0.35734 c -0.55556,-4.99878 -1.09534,-20.18854 12.83763,-20.62627 12.09327,0.0274 16.93247,8.45385 16.11632,18.83845 l 11.43847,-1.07224 c 3.22265,0.2528 2.70055,-9.13048 2.10023,-9.38329 -0.85313,-0.34752 -1.49009,0.27902 -1.74283,0.089 -0.092,-1.76493 1.70985,-14.15859 -3.57438,-15.90641 -9.21078,-3.54847 -11.12685,-2.1976 -13.22616,-2.86004 -12.70151,-8.2132 -17.54383,-10.35377 -24.30672,-12.33217 -1.26582,-0.11901 -8.85761,-0.37071 -16.71837,-0.38288 z m 0.88077,3.27004 c 2.84764,-0.002 6.83027,0.18031 11.71173,1.08078 3.88158,0.82589 4.33836,0.99408 6.52781,2.11111 l -1.0983,10.29442 -20.79575,-0.0215 c 0,0 0.19697,-3.89656 1.30309,-13.43988 0.60891,-0.008 1.40231,-0.0245 2.35142,-0.0251 z m -5.65466,0.1067 -1.02723,13.2249 -26.325558,0.62931 -0.43939,-2.72876 -4.825393,0.089 c 3.887314,-4.37881 14.871829,-11.17101 32.617571,-11.21481 z m 25.51796,3.70277 c 4.00941,1.74459 6.60569,2.89073 8.00565,5.81444 0.60313,0.93837 0.91053,2.49929 -1.07787,3.61626 l -7.67654,0.17552 z m -86.061575,19.21918 c -6.218788,-2.6e-4 -11.26024,5.00096 -11.260283,11.17038 4.8e-5,6.16946 5.041499,11.17069 11.260283,11.17044 6.21858,-5e-5 11.259729,-5.00119 11.259771,-11.17044 -3.6e-5,-6.1692 -5.041188,-11.17034 -11.259771,-11.17038 z m 95.976415,0 c -6.2186,4e-5 -11.25965,5.00118 -11.2597,11.17038 6e-5,6.16925 5.0411,11.17039 11.2597,11.17044 6.21859,-5e-5 11.25971,-5.00119 11.25976,-11.17044 -4e-5,-6.1692 -5.04117,-11.17034 -11.25976,-11.17038 z"
       sodipodi:nodetypes="scccccccccccccccccsscccccscccccccccccccccccccccccc" /></g></svg>
