<?xml version="1.0" encoding="UTF-8" standalone="no"?>
<!-- Created with Inkscape (http://www.inkscape.org/) -->

<svg
   width="210mm"
   height="297mm"
   viewBox="0 0 210 297"
   version="1.1"
   id="svg1"
   xml:space="preserve"
   inkscape:version="1.3.2 (091e20e, 2023-11-25, custom)"
   sodipodi:docname="sedan.svg"
   xmlns:inkscape="http://www.inkscape.org/namespaces/inkscape"
   xmlns:sodipodi="http://sodipodi.sourceforge.net/DTD/sodipodi-0.dtd"
   xmlns="http://www.w3.org/2000/svg"
   xmlns:svg="http://www.w3.org/2000/svg"><sodipodi:namedview
     id="namedview1"
     pagecolor="#ffffff"
     bordercolor="#000000"
     borderopacity="0.25"
     inkscape:showpageshadow="2"
     inkscape:pageopacity="0.0"
     inkscape:pagecheckerboard="0"
     inkscape:deskcolor="#d1d1d1"
     inkscape:document-units="mm"
     inkscape:zoom="1.0343421"
     inkscape:cx="348.04733"
     inkscape:cy="484.84927"
     inkscape:window-width="1920"
     inkscape:window-height="1017"
     inkscape:window-x="1272"
     inkscape:window-y="-8"
     inkscape:window-maximized="1"
     inkscape:current-layer="layer1" /><defs
     id="defs1" /><g
     inkscape:label="Vrstva 1"
     inkscape:groupmode="layer"
     id="layer1"><path
       id="path1"
       style="fill:#000000;stroke-width:0.264583;image-rendering:auto"
       d="m 120.54716,109.76643 c -7.95527,-0.0123 -16.18291,0.218 -18.55235,1.06815 -0.33613,0.045 -18.264419,4.97402 -29.101585,14.51332 -16.731087,0.18088 -35.406658,4.80892 -37.621993,6.51123 -2.925702,1.74309 -5.583725,7.98912 -5.788277,12.84263 0.21897,2.80914 1.117012,5.99069 2.89388,8.13904 h 7.596952 c 0,0 -2.893803,-18.47192 13.54336,-19.87372 5.14126,-0.0225 16.531153,0.88896 15.758728,21.32118 l 68.552405,-0.36174 c -0.56221,-5.05881 -1.10849,-20.43124 12.99197,-20.87418 12.23873,0.0275 17.13613,8.55551 16.31012,19.06499 l 11.57603,-1.08521 c 3.26143,0.2558 2.73298,-9.24026 2.12546,-9.49606 -0.86332,-0.35172 -1.50792,0.28229 -1.76372,0.0904 -0.0934,-1.78622 1.73043,-14.32886 -3.61735,-16.09773 -9.32148,-3.59108 -11.26062,-2.22398 -13.38523,-2.8944 -12.8543,-8.31196 -17.75484,-10.47829 -24.59902,-12.48037 -1.281,-0.12049 -8.96409,-0.37525 -16.91938,-0.38757 z m 0.89142,3.30936 c 2.88177,-0.002 6.91239,0.18245 11.85249,1.09373 3.92819,0.83589 4.39059,1.00607 6.60633,2.13655 l -1.11156,10.41823 -21.04574,-0.0217 c 0,0 0.19927,-3.94332 1.31878,-13.60149 0.61611,-0.008 1.41911,-0.0247 2.3797,-0.0253 z m -5.72265,0.108 -1.03973,13.38393 -26.642039,0.63692 -0.444675,-2.76159 -4.883423,0.0904 c 3.934067,-4.43147 15.050666,-11.30539 33.009867,-11.34969 z m 25.8248,3.7473 c 4.05751,1.76559 6.68506,2.92552 8.10181,5.88441 0.61046,0.9496 0.9215,2.52924 -1.09075,3.65972 l -7.7689,0.17756 z m -87.096508,19.45025 c -6.293565,-2.4e-4 -11.395647,5.06112 -11.395687,11.30474 4.5e-5,6.24361 5.102126,11.30497 11.395687,11.30473 6.29336,-4e-5 11.395125,-5.06132 11.39517,-11.30473 -4e-5,-6.24342 -5.101807,-11.3047 -11.39517,-11.30474 z m 97.130508,0 c -6.29336,4e-5 -11.39513,5.06132 -11.39517,11.30474 5e-5,6.24341 5.10181,11.30469 11.39517,11.30473 6.29336,-4e-5 11.39512,-5.06132 11.39517,-11.30473 -4e-5,-6.24342 -5.10181,-11.3047 -11.39517,-11.30474 z"
       sodipodi:nodetypes="scccccccccccccccccsscccccscccccccccccccccccccccccc" /></g></svg>
