<?xml version="1.0" encoding="UTF-8" standalone="no"?>
<!-- Created with Inkscape (http://www.inkscape.org/) -->

<svg
   width="147.33553mm"
   height="42.090973mm"
   viewBox="0 0 147.33553 42.090973"
   version="1.1"
   id="svg1"
   xml:space="preserve"
   inkscape:version="1.3.2 (091e20e, 2023-11-25, custom)"
   sodipodi:docname="supercar.svg"
   xmlns:inkscape="http://www.inkscape.org/namespaces/inkscape"
   xmlns:sodipodi="http://sodipodi.sourceforge.net/DTD/sodipodi-0.dtd"
   xmlns="http://www.w3.org/2000/svg"
   xmlns:svg="http://www.w3.org/2000/svg"><sodipodi:namedview
     id="namedview1"
     pagecolor="#ffffff"
     bordercolor="#000000"
     borderopacity="0.25"
     inkscape:showpageshadow="2"
     inkscape:pageopacity="0.0"
     inkscape:pagecheckerboard="0"
     inkscape:deskcolor="#d1d1d1"
     inkscape:document-units="mm"
     inkscape:zoom="0.73139031"
     inkscape:cx="673.37507"
     inkscape:cy="529.81287"
     inkscape:window-width="1920"
     inkscape:window-height="1017"
     inkscape:window-x="-8"
     inkscape:window-y="1192"
     inkscape:window-maximized="1"
     inkscape:current-layer="layer1" /><defs
     id="defs1" /><g
     inkscape:label="Vrstva 1"
     inkscape:groupmode="layer"
     id="layer1"
     transform="translate(-34.896062,-94.316724)"><path
       id="path1"
       style="fill:#000000;stroke-width:0.256161;image-rendering:auto"
       d="m 182.00026,94.316724 c -1.40994,-3.71e-4 -14.97621,3.364204 -19.3921,5.527311 -1.15493,1.369015 -1.50225,5.350475 -0.94929,6.330875 0.88881,0.48251 16.26539,0.18553 17.95187,-0.0455 0.49568,-0.53753 3.25361,-10.142645 2.48719,-11.801864 -0.0195,-0.0072 -0.0522,-0.01084 -0.0977,-0.01085 z m -69.30533,4.038513 c -1.36538,0.0054 -2.5675,0.01838 -3.43493,0.02067 -18.204432,1.419976 -34.906924,6.566833 -51.848,13.211083 0,0 -20.237815,9.54362 -22.515939,12.5243 0.212,2.71971 6.959781,8.24135 8.680091,10.32133 l 10.339937,-0.0899 c 0,0 -6.329116,-19.24092 11.755355,-23.13037 5.520238,-0.20258 18.175817,0.58941 15.438334,22.63221 l 63.503102,0.0904 c -0.54432,-4.89779 -2.10103,-23.70356 15.2647,-22.63996 11.82703,0.72436 13.77696,10.58528 13.10514,22.67871 l 6.07974,0.39843 c 3.15761,0.24766 3.03144,-7.57151 2.44326,-7.81916 -0.83585,-0.34052 -1.45973,0.27366 -1.70739,0.0879 -0.0905,-1.72936 1.7524,-8.87929 1.08417,-15.57838 -3.76284,-1.39848 -21.25781,-3.9885 -26.05371,-4.59352 -12.43253,-3.46078 -21.02844,-5.59734 -30.08963,-7.443987 -2.38493,-0.631585 -7.9481,-0.685842 -12.04423,-0.669726 z m -0.53227,2.757973 c 3.37863,-0.0407 6.08485,0.21522 7.54166,0.80512 -0.98612,5.60443 -2.8009,9.35442 -4.05712,9.37617 l -28.224112,0.48886 0.209289,-3.44114 -8.437211,0.15142 c 6.645644,-4.4648 22.831624,-7.25826 32.967494,-7.38043 z m 11.29234,4.81624 c 2.02548,0.63817 4.29573,2.71618 5.02398,3.39721 0.15479,1.3002 -1.1405,1.44642 -1.1405,1.44642 0,0 -2.13173,0.17114 -5.78466,0.10904 z m -56.885937,8.58862 c -6.093233,-2.3e-4 -11.03288,4.89968 -11.032918,10.94456 4.3e-5,6.04487 4.939688,10.94529 11.032918,10.94506 6.093036,-4e-5 11.032357,-4.90039 11.032402,-10.94506 -4e-5,-6.04469 -4.939363,-10.94452 -11.032402,-10.94456 z m 91.864677,0 c -6.09303,0 -11.03241,4.89987 -11.0324,10.94456 0,6.04467 4.93937,10.94502 11.0324,10.94506 6.09304,-4e-5 11.03235,-4.90039 11.0324,-10.94506 -4e-5,-6.04469 -4.93936,-10.94456 -11.0324,-10.94456 z" /></g></svg>
