<?xml version="1.0" encoding="UTF-8" standalone="no"?>
<!-- Created with Inkscape (http://www.inkscape.org/) -->

<svg
   width="138.3382mm"
   height="53.841919mm"
   viewBox="0 0 138.3382 53.841919"
   version="1.1"
   id="svg1"
   xml:space="preserve"
   xmlns="http://www.w3.org/2000/svg"
   xmlns:svg="http://www.w3.org/2000/svg"><defs
     id="defs1" /><g
     id="layer1"
     transform="translate(-34.598922,-105.40469)"><path
       id="path1"
       style="fill:#000000;stroke-width:0.272487;image-rendering:auto"
       d="m 153.14983,105.40494 c -7.60165,-0.008 -17.69971,0.22698 -25.34885,0.28887 v -5.2e-4 c -8.19266,0.0662 -37.50876,0.189 -39.948978,1.06453 -4.687212,3.39262 -6.861377,4.65394 -15.580444,14.38776 -17.230894,0.18629 -31.891918,3.67338 -34.333305,6.19393 -1.328822,1.53593 -0.690397,8.20002 -0.690397,8.20002 0,0 -1.565135,-0.0299 -2.062407,0.3452 -0.714746,0.48422 -0.481196,7.80917 -0.586527,10.30841 0.22551,2.89306 0.958512,1.50146 2.78846,3.71399 l 7.823812,-0.12764 c 0,0 -2.02083,-14.86696 13.244669,-17.33383 5.294845,-0.0232 15.746009,3.08953 15.973702,16.84187 l 62.860245,-0.0682 c -0.70691,-11.02935 6.58943,-16.38174 13.5077,-16.95711 7.79216,-0.16745 15.81101,4.86502 15.98352,17.73484 l 3.49075,0.008 c 3.35885,0.26344 2.82657,-14.11191 2.2009,-14.37535 -0.88911,-0.36223 -2.72915,-0.25196 -2.99259,-0.44958 -0.0962,-1.83958 0.14375,-3.78435 -1.11724,-10.46396 -1.58823,-7.12724 -5.83292,-17.16203 -8.62686,-19.20658 -1.79584,-0.0725 -4.05228,-0.10209 -6.58616,-0.1049 z m 4.48615,3.30975 c 1.89333,1.56582 6.72056,11.1647 5.81916,13.04558 -2.53935,0.93696 -18.48143,0.31988 -18.48143,0.31988 -1.63681,-3.06128 -3.67571,-7.71115 -5.30743,-12.9182 6.0073,-0.1272 13.6259,-0.60777 17.9697,-0.44726 z m -25.27765,0.65073 3.07113,10.0738 c 0.16464,1.38306 0.30332,1.8939 -0.3514,2.54455 -7.45953,0.21894 -19.07514,0.17951 -22.96087,0.11369 l 0.7953,-12.54394 z m -23.535,0.1142 -1.03766,12.57701 -22.735047,-0.0677 -0.457854,-2.84427 -5.029667,0.093 c 5.011433,-5.64504 7.634497,-7.54758 9.657809,-9.21959 13.318579,-0.35121 19.602419,-0.53847 19.602419,-0.53847 z m 42.7514,26.21081 c -6.48137,0 -11.73573,5.21226 -11.73572,11.64218 0,6.42992 5.25435,11.64266 11.73572,11.6427 6.48136,-4e-5 11.73567,-5.21278 11.73572,-11.6427 -4e-5,-6.42992 -5.25436,-11.64218 -11.73572,-11.64218 z m -92.163886,0.2713 c -6.481573,-2.5e-4 -11.736194,5.21205 -11.736235,11.64218 4.7e-5,6.43012 5.254666,11.64295 11.736235,11.6427 6.48136,-4e-5 11.735154,-5.21278 11.735201,-11.6427 -4.2e-5,-6.42992 -5.253838,-11.64214 -11.735201,-11.64218 z" /></g></svg>
