<?xml version="1.0" encoding="UTF-8" standalone="no"?>
<!-- Created with Inkscape (http://www.inkscape.org/) -->

<svg
   width="150mm"
   height="58.215164mm"
   viewBox="0 0 150 58.215164"
   version="1.1"
   id="svg1"
   xml:space="preserve"
   inkscape:version="1.3.2 (091e20e, 2023-11-25, custom)"
   sodipodi:docname="SUV.svg"
   xmlns:inkscape="http://www.inkscape.org/namespaces/inkscape"
   xmlns:sodipodi="http://sodipodi.sourceforge.net/DTD/sodipodi-0.dtd"
   xmlns="http://www.w3.org/2000/svg"
   xmlns:svg="http://www.w3.org/2000/svg"><sodipodi:namedview
     id="namedview1"
     pagecolor="#ffffff"
     bordercolor="#000000"
     borderopacity="0.25"
     inkscape:showpageshadow="2"
     inkscape:pageopacity="0.0"
     inkscape:pagecheckerboard="0"
     inkscape:deskcolor="#d1d1d1"
     inkscape:document-units="mm"
     inkscape:zoom="1.0343421"
     inkscape:cx="683.52628"
     inkscape:cy="460.67931"
     inkscape:window-width="1920"
     inkscape:window-height="1017"
     inkscape:window-x="1272"
     inkscape:window-y="-8"
     inkscape:window-maximized="1"
     inkscape:current-layer="layer1" /><defs
     id="defs1" /><g
     inkscape:label="Vrstva 1"
     inkscape:groupmode="layer"
     id="layer1"
     transform="translate(-32.433678,-105.8469)"><path
       id="path1"
       style="fill:#808080;stroke-width:0.295524;image-rendering:auto"
       d="m 133.55658,105.87099 c -8.88528,0.0718 -40.780503,-0.0457 -43.427026,0.9039 -0.375438,0.0503 -5.085053,3.97184 -15.977346,15.23275 -18.687622,0.20204 -37.072186,3.85636 -38.738469,7.32346 -1.179352,1.17551 -1.150944,8.55328 -1.139961,8.79877 -0.958282,0.36071 -1.271298,0.45496 -1.840099,0.64646 0.244577,3.13764 -0.01527,11.94373 1.969391,14.3433 0,0 7.641,0.087 8.990973,-0.10097 0.273349,-6.41762 2.525354,-16.43987 14.874326,-18.30863 9.530518,-0.27768 17.311614,6.13625 17.459006,18.95739 l 68.282795,-0.40403 c -0.62795,-5.65039 3.04266,-18.03632 15.46479,-18.66015 8.20396,-0.412 16.81683,7.13179 15.89423,18.87025 l 4.42709,-0.0364 c 3.64282,0.28571 2.66584,-15.05672 1.98728,-15.34243 -0.96427,-0.39285 -2.79535,-0.39172 -3.08106,-0.60605 -0.10432,-1.99511 0.30336,-6.32521 -2.24125,-14.15803 -0.56324,-3.15673 -5.01944,-14.35984 -8.44091,-17.02495 -12.47571,-0.50341 -28.96382,-0.4853 -34.46376,-0.43406 z m 33.9349,3.96445 c 0.51834,0.61359 5.3344,13.54187 5.17868,13.89303 -0.37002,0.27971 -19.61495,0.37864 -20.53538,-0.10711 -0.83059,-0.37842 -5.39322,-13.82132 -5.39322,-13.82132 m -34.54237,0.14365 c 0.72332,0.004 1.20367,0.0203 1.357,0.0514 0.31739,1.61224 -2.19104,14.28155 -2.19104,14.28155 l -24.68607,0.71111 c 0,0 0.530731,-3.76833 0.14603,-4.01266 -0.364347,-0.2314 -4.968531,0.30366 -5.454496,0.10097 2.323322,-3.48498 8.126808,-9.82942 8.798767,-10.60598 0,0 16.966579,-0.55432 22.029809,-0.5264 z m 26.47307,0.004 c 1.19694,1.76992 4.14599,9.73238 5.03315,12.54534 0.0179,0.85713 -0.38361,0.88043 -3.39449,1.10476 -8.09017,0.23745 -19.65682,0.45179 -23.87107,0.38036 l 1.50764,-13.8648 c 0,0 15.27681,-0.18869 20.72477,-0.16566 z M 59.303857,138.5229 c -7.029536,-2.6e-4 -12.728269,5.65298 -12.728313,12.62672 5e-5,6.97375 5.698782,12.627 12.728313,12.62673 7.029306,-4e-5 12.727685,-5.6532 12.727735,-12.62673 -4.4e-5,-6.97352 -5.698426,-12.62667 -12.727735,-12.62672 z m 100.631703,0.28572 c -7.0293,0 -12.72774,5.65319 -12.72773,12.62672 0,6.97352 5.69843,12.62668 12.72773,12.62673 7.02932,-5e-5 12.72768,-5.65321 12.72774,-12.62673 -5e-5,-6.97353 -5.69842,-12.62672 -12.72774,-12.62672 z"
       sodipodi:nodetypes="cccccccccccsccccccccccccccsccscccsccccsccssccsccc" /></g></svg>
