<?xml version="1.0" encoding="UTF-8" standalone="no"?>
<!-- Created with Inkscape (http://www.inkscape.org/) -->

<svg
   width="151.80367mm"
   height="49.224846mm"
   viewBox="0 0 151.80367 49.224846"
   version="1.1"
   id="svg1"
   xml:space="preserve"
   inkscape:version="1.3.2 (091e20e, 2023-11-25, custom)"
   sodipodi:docname="wagon.svg"
   inkscape:export-filename="wagon.png"
   inkscape:export-xdpi="96"
   inkscape:export-ydpi="96"
   xmlns:inkscape="http://www.inkscape.org/namespaces/inkscape"
   xmlns:sodipodi="http://sodipodi.sourceforge.net/DTD/sodipodi-0.dtd"
   xmlns="http://www.w3.org/2000/svg"
   xmlns:svg="http://www.w3.org/2000/svg"><sodipodi:namedview
     id="namedview1"
     pagecolor="#ffffff"
     bordercolor="#000000"
     borderopacity="0.25"
     inkscape:showpageshadow="2"
     inkscape:pageopacity="0.0"
     inkscape:pagecheckerboard="0"
     inkscape:deskcolor="#d1d1d1"
     inkscape:document-units="mm"
     inkscape:zoom="1.0343421"
     inkscape:cx="603.76543"
     inkscape:cy="494.51724"
     inkscape:window-width="1920"
     inkscape:window-height="1017"
     inkscape:window-x="-32000"
     inkscape:window-y="-32000"
     inkscape:window-maximized="0"
     inkscape:current-layer="layer1" /><defs
     id="defs1" /><g
     inkscape:label="Vrstva 1"
     inkscape:groupmode="layer"
     id="layer1"
     transform="translate(-30.50615,-107.97538)"><path
       id="path1"
       style="fill:#000000;stroke-width:0.264583;image-rendering:auto"
       d="m 121.57035,107.97584 c -7.95527,-0.0123 -16.18291,0.218 -18.55235,1.06815 -0.33613,0.045 -18.264414,4.97402 -29.10158,14.51332 -16.731087,0.18088 -35.406658,4.80892 -37.621993,6.51123 -2.925702,1.74309 -5.583725,7.98912 -5.788277,12.84263 0.21897,2.80914 1.117012,5.99069 2.89388,8.13904 h 7.596952 c 0,0 -2.893803,-18.47192 13.54336,-19.87372 5.14126,-0.0225 16.531153,0.88896 15.758728,21.32118 l 68.5524,-0.36174 c -0.56221,-5.05881 -1.10849,-20.43124 12.99197,-20.87418 12.23873,0.0275 17.13613,8.55551 16.31012,19.06499 l 11.57603,-1.08521 c 3.26143,0.2558 2.73298,-9.24026 2.12546,-9.49606 -0.86332,-0.35172 -1.50792,0.28229 -1.76372,0.0904 -0.0934,-1.78622 0.70724,-8.50944 -0.54777,-14.75479 -2.02434,-9.78202 -4.24167,-15.72644 -6.87788,-16.65266 -17.03243,-0.18062 -34.07429,-0.37662 -51.09533,-0.45262 z m 0.89142,3.30936 c 6.79296,0.0755 11.6763,0.008 18.26697,0.16066 l 1.70223,13.16806 -23.66768,0.29805 1.31878,-13.60149 2.3797,-0.0253 z m -5.72265,0.108 -1.03973,13.38393 -26.642034,0.63692 -0.444675,-2.76159 -4.883423,0.0904 c 3.934067,-4.43147 15.050666,-11.30539 33.009862,-11.34969 z m 27.87119,0.16612 c 0,0 21.63529,-0.69186 24.92057,-0.0629 1.37666,0.26355 4.56663,9.24395 3.38573,12.42082 l -26.37825,0.62521 z m -89.142893,23.03143 c -6.293565,-2.4e-4 -11.395647,5.06112 -11.395687,11.30474 4.5e-5,6.24361 5.102126,11.30497 11.395687,11.30473 6.29336,-4e-5 11.395125,-5.06132 11.39517,-11.30473 -4e-5,-6.24342 -5.101807,-11.3047 -11.39517,-11.30474 z m 97.130503,0 c -6.29336,4e-5 -11.39513,5.06132 -11.39517,11.30474 5e-5,6.24341 5.10181,11.30469 11.39517,11.30473 6.29336,-4e-5 11.39512,-5.06132 11.39517,-11.30473 -4e-5,-6.24342 -5.10181,-11.3047 -11.39517,-11.30474 z"
       sodipodi:nodetypes="sccccccccccccccccsscccccccccccccccsccccccccccccc"
       inkscape:export-filename="FI\semester4\PV178-C#\MyGarage\MauiApp1\Resources\Images\wagon.svg"
       inkscape:export-xdpi="96"
       inkscape:export-ydpi="96" /></g></svg>
