<?xml version="1.0" encoding="UTF-8" standalone="no"?>
<!-- Created with Inkscape (http://www.inkscape.org/) -->

<svg
   width="150mm"
   height="48.639977mm"
   viewBox="0 0 150 48.639977"
   version="1.1"
   id="svg1"
   xml:space="preserve"
   inkscape:version="1.3.2 (091e20e, 2023-11-25, custom)"
   sodipodi:docname="wagon.svg"
   inkscape:export-filename="wagon.png"
   inkscape:export-xdpi="96"
   inkscape:export-ydpi="96"
   xmlns:inkscape="http://www.inkscape.org/namespaces/inkscape"
   xmlns:sodipodi="http://sodipodi.sourceforge.net/DTD/sodipodi-0.dtd"
   xmlns="http://www.w3.org/2000/svg"
   xmlns:svg="http://www.w3.org/2000/svg"><sodipodi:namedview
     id="namedview1"
     pagecolor="#ffffff"
     bordercolor="#000000"
     borderopacity="0.25"
     inkscape:showpageshadow="2"
     inkscape:pageopacity="0.0"
     inkscape:pagecheckerboard="0"
     inkscape:deskcolor="#d1d1d1"
     inkscape:document-units="mm"
     inkscape:zoom="1.0343421"
     inkscape:cx="603.76543"
     inkscape:cy="494.51724"
     inkscape:window-width="1920"
     inkscape:window-height="1017"
     inkscape:window-x="1272"
     inkscape:window-y="-8"
     inkscape:window-maximized="1"
     inkscape:current-layer="layer1" /><defs
     id="defs1" /><g
     inkscape:label="Vrstva 1"
     inkscape:groupmode="layer"
     id="layer1"
     transform="translate(-30.50615,-107.97537)"><path
       id="path1"
       style="fill:#808080;stroke-width:0.261439;image-rendering:auto"
       d="m 120.48836,107.97583 c -7.86075,-0.0122 -15.99063,0.21541 -18.33192,1.05546 -0.33213,0.0445 -18.047399,4.91492 -28.755803,14.34088 -16.532295,0.17873 -34.985971,4.75178 -37.174984,6.43387 -2.89094,1.72238 -5.517381,7.89419 -5.719503,12.69004 0.216368,2.77576 1.10374,5.91951 2.859496,8.04233 h 7.506688 c 0,0 -2.85942,-18.25244 13.382444,-19.63759 5.080174,-0.0222 16.334737,0.8784 15.571489,21.06785 l 67.737893,-0.35744 c -0.55553,-4.9987 -1.09532,-20.18848 12.8376,-20.62616 12.09332,0.0272 16.93253,8.45386 16.11633,18.83847 l 11.43849,-1.07232 c 3.22268,0.25276 2.70051,-9.13047 2.10021,-9.38323 -0.85307,-0.34754 -1.49001,0.27894 -1.74277,0.0893 -0.0923,-1.765 0.69884,-8.40834 -0.54126,-14.57948 -2.00029,-9.6658 -4.19127,-15.53959 -6.79616,-16.4548 -16.83006,-0.17848 -33.66943,-0.37215 -50.48824,-0.44725 z m 0.88083,3.27004 c 6.71225,0.0746 11.53757,0.008 18.04993,0.15876 l 1.68201,13.0116 -23.38647,0.29451 1.30311,-13.43989 2.35142,-0.025 z m -5.65465,0.10672 -1.02738,13.22491 -26.325485,0.62935 -0.439391,-2.72878 -4.825401,0.0893 c 3.887324,-4.37882 14.871841,-11.17107 32.617657,-11.21484 z m 27.54003,0.16415 c 0,0 21.37823,-0.68364 24.62448,-0.0622 1.3603,0.26042 4.51237,9.13412 3.3455,12.27325 l -26.06484,0.61778 z m -88.083732,22.75778 c -6.218788,-2.4e-4 -11.260249,5.00098 -11.260289,11.17042 4.5e-5,6.16943 5.041505,11.17065 11.260289,11.17041 6.218585,-4e-5 11.259733,-5.00118 11.259777,-11.17041 -3.9e-5,-6.16924 -5.041189,-11.17038 -11.259777,-11.17042 z m 95.976442,0 c -6.21859,4e-5 -11.25974,5.00118 -11.25978,11.17042 5e-5,6.16923 5.04119,11.17037 11.25978,11.17041 6.21858,-4e-5 11.25972,-5.00118 11.25977,-11.17041 -4e-5,-6.16924 -5.04119,-11.17038 -11.25977,-11.17042 z"
       sodipodi:nodetypes="sccccccccccccccccsscccccccccccccccsccccccccccccc"
       inkscape:export-filename="FI\semester4\PV178-C#\MyGarage\MyGarage\Resources\Images\wagon.svg"
       inkscape:export-xdpi="96"
       inkscape:export-ydpi="96" /></g></svg>
