<?xml version="1.0" encoding="UTF-8" standalone="no"?>
<!-- Created with Inkscape (http://www.inkscape.org/) -->

<svg
   width="102.56955mm"
   height="97.623169mm"
   viewBox="0 0 102.56955 97.623169"
   version="1.1"
   id="svg1"
   xml:space="preserve"
   inkscape:version="1.3.2 (091e20e, 2023-11-25, custom)"
   sodipodi:docname="MainIcon.svg"
   xmlns:inkscape="http://www.inkscape.org/namespaces/inkscape"
   xmlns:sodipodi="http://sodipodi.sourceforge.net/DTD/sodipodi-0.dtd"
   xmlns="http://www.w3.org/2000/svg"
   xmlns:svg="http://www.w3.org/2000/svg"><sodipodi:namedview
     id="namedview1"
     pagecolor="#ffffff"
     bordercolor="#000000"
     borderopacity="0.25"
     inkscape:showpageshadow="2"
     inkscape:pageopacity="0.0"
     inkscape:pagecheckerboard="0"
     inkscape:deskcolor="#d1d1d1"
     inkscape:document-units="mm"
     inkscape:zoom="4.1373683"
     inkscape:cx="353.36472"
     inkscape:cy="625.63925"
     inkscape:window-width="1920"
     inkscape:window-height="1017"
     inkscape:window-x="-8"
     inkscape:window-y="-8"
     inkscape:window-maximized="1"
     inkscape:current-layer="layer1" /><defs
     id="defs1" /><g
     inkscape:label="Vrstva 1"
     inkscape:groupmode="layer"
     id="layer1"
     transform="translate(-58.296743,-78.599844)"><path
       id="path1"
       style="fill:#000000;stroke-width:0.264583"
       d="m 109.73697,78.613806 c -0.87638,0.0646 -1.87057,0.362687 -2.9409,1.067635 -4.67533,3.037144 -42.817774,26.779519 -47.066899,30.439999 -4.133366,3.8791 1.772384,7.85984 3.979602,5.55987 0.945075,-0.9407 1.806072,-1.58138 1.775602,-1.46709 l -0.383439,58.06622 c 0,0 -3.134535,0.0806 -5.499923,0.12764 -1.221789,0.0154 -1.277284,3.52911 -0.118856,3.63027 28.933541,0.22019 75.431413,0.27095 99.844033,0 1.54017,-0.032 1.51259,-3.65354 -0.045,-3.7083 -2.42913,-0.0397 -5.38106,0 -5.38106,0 l -0.29301,-57.98819 c 0,0 0.65574,0.46477 2.42983,1.66295 2.93634,2.04386 6.75568,-3.93994 3.70933,-6.01152 -9.13222,-5.90516 -46.2995,-30.184208 -46.2995,-30.184208 0,0 -1.1116,-1.0287 -2.87424,-1.188558 -0.2644,-0.02398 -0.54348,-0.02827 -0.83561,-0.0067 z M 75.128231,117.79591 c 1.120669,0.0233 67.627499,0.005 69.999349,0 1.53819,0.0424 1.54637,0.0504 1.53737,1.71824 -0.1256,9.54468 -0.0904,52.8159 -0.0904,52.8159 l -74.159302,-0.0904 c 0,0 -0.006,-51.60367 -0.02274,-52.36373 -0.0113,-2.07808 0.011,-2.07598 2.735751,-2.07998 z m 48.486449,1.85415 c -0.0219,0.55075 -0.16056,49.83477 -0.12764,50.90387 1.12906,0.0355 19.9834,0.23673 20.78322,0.19172 0.0535,-1.01472 0.0421,-49.87754 0.0641,-50.96795 -0.99665,-0.01 -20.17572,-0.13708 -20.71966,-0.12764 z m 18.69911,2.80965 v 0.002 c 0.0514,0.004 0.10011,0.0149 0.14625,0.0331 0.0461,0.0181 0.0896,0.0433 0.13022,0.0739 0.0407,0.0307 0.0783,0.0672 0.11317,0.10852 0.0347,0.0411 0.0669,0.0872 0.0956,0.13694 0.0576,0.0997 0.10295,0.21472 0.13487,0.33745 0.0312,0.11997 0.049,0.24724 0.0537,0.37465 2.2e-4,0.006 3.6e-4,0.0116 5.2e-4,0.0176 0.003,0.12417 -0.006,0.24773 -0.03,0.36484 -0.0131,0.0646 -0.0299,0.12721 -0.0517,0.18655 -0.0413,0.11288 -0.0983,0.21412 -0.1726,0.29611 -0.0348,0.0384 -0.0739,0.0721 -0.11627,0.10128 -0.005,0.004 -0.0106,0.007 -0.016,0.0108 -0.0437,0.0281 -0.091,0.0514 -0.14263,0.0682 -0.0546,0.0178 -0.11351,0.0292 -0.17725,0.0326 -2.15486,0.003 -5.29579,0.0168 -8.42946,0.0274 -3.13382,0.0106 -6.2611,0.0172 -8.38966,0.004 -0.0504,-0.003 -0.0971,-0.0131 -0.14056,-0.03 -0.0424,-0.0165 -0.0814,-0.0391 -0.11731,-0.0672 -8.6e-4,-6.7e-4 -0.002,-10e-4 -0.003,-0.002 -0.0734,-0.0582 -0.13313,-0.13877 -0.17983,-0.23461 -0.0466,-0.0957 -0.0804,-0.20614 -0.10129,-0.32453 v -5.2e-4 c -0.0209,-0.11824 -0.0291,-0.24395 -0.0253,-0.37 1e-5,-5.2e-4 -2e-5,-0.001 0,-0.002 0.004,-0.1252 0.0202,-0.25068 0.0475,-0.36897 1.1e-4,-4.9e-4 -1.1e-4,-0.001 0,-0.002 v -5.1e-4 c 1.8e-4,-7.8e-4 8.8e-4,-0.001 10e-4,-0.002 0.0276,-0.11818 0.0663,-0.22965 0.11628,-0.32608 0.0253,-0.0488 0.0533,-0.0939 0.0842,-0.13436 0.0307,-0.0403 0.0646,-0.0757 0.10077,-0.10593 0.002,-0.001 0.003,-0.002 0.005,-0.004 0.0334,-0.0273 0.0691,-0.0499 0.10697,-0.0672 0.004,-0.002 0.007,-0.003 0.0109,-0.005 0.0399,-0.017 0.0819,-0.0288 0.12661,-0.0331 0.44094,0.01 4.09106,-0.0184 7.90804,-0.047 3.81704,-0.0287 7.80144,-0.0574 8.91108,-0.0486 z m 0,3.10369 c 0.82227,0.0597 0.98781,2.08798 -0.032,2.14198 -4.30972,0.005 -12.56213,0.058 -16.81912,0.032 -0.80637,-0.0456 -0.71603,-2.00652 0.032,-2.07842 0.88187,0.0198 14.59983,-0.11331 16.81912,-0.0956 z m 0,3.10213 c 0.82228,0.0597 0.98781,2.08799 -0.032,2.14199 -4.30972,0.005 -12.56212,0.058 -16.81912,0.032 -0.80637,-0.0456 -0.71603,-2.00653 0.032,-2.07843 0.88187,0.0198 14.59983,-0.1133 16.81912,-0.0956 z m -47.434827,2.50217 c -2.102028,-0.003 -5.243036,0.0371 -7.221264,0.27751 -0.971529,0.20865 -1.985641,0.51614 -2.75022,1.15083 -1.768168,1.53593 -4.029072,6.66866 -4.540292,6.90656 -0.366207,0.19515 -2.232061,0.13738 -3.133658,0.12815 -0.880017,0.44341 -1.716841,0.72555 -1.854151,2.30219 -0.13409,1.53968 0.559313,2.08462 1.278992,2.42982 0.594697,0.0376 1.813506,-0.0351 2.302185,0 0.0906,0.7649 -0.125988,1.98179 -0.128158,1.98283 -0.887217,0.43163 -1.958345,0.93666 -2.941422,1.40663 -1.546607,1.1489 -1.621127,2.1925 -2.046387,3.2613 -0.451629,3.7809 -0.486029,7.75187 0,11.95896 0.24182,1.14259 1.037339,1.7775 2.302185,1.98231 l 0.03152,4.38061 c 0.162318,0.69159 0.584521,1.15741 1.439189,1.24695 l 7.050215,0.032 c 1.171799,-0.0696 1.24473,-0.78371 1.19941,-1.56683 l -0.03204,-2.3983 10.888741,-0.0295 v 0.0134 l 0.751375,-0.0155 0.222209,-5.2e-4 v -0.004 l 0.08992,-0.002 v 0.0139 l 11.862328,0.032 -0.032,2.3983 c -0.0453,0.7831 0.0276,1.49723 1.19941,1.56683 l 7.05021,-0.032 c 0.85467,-0.0895 1.27636,-0.55536 1.43868,-1.24695 l 0.032,-4.38061 c 1.26482,-0.20481 2.06036,-0.83972 2.30218,-1.98231 0.48603,-4.20709 0.45163,-8.17806 0,-11.95896 -0.42526,-1.06878 -0.49978,-2.1124 -2.04639,-3.2613 -0.98308,-0.46997 -2.0542,-0.975 -2.94142,-1.40663 -0.002,-0.001 -0.21876,-1.21792 -0.12816,-1.98282 0.48868,-0.0351 1.70749,0.0376 2.30219,0 0.71968,-0.3452 1.41308,-0.89015 1.27899,-2.42983 -0.13731,-1.57664 -0.97413,-1.85878 -1.85415,-2.30218 -0.9016,0.009 -2.76745,0.067 -3.13366,-0.12816 -0.51122,-0.2379 -2.77212,-5.37063 -4.54029,-6.90656 -0.76458,-0.63469 -1.77869,-0.94218 -2.75022,-1.15083 -2.36915,-0.28786 -6.57919,-0.28777 -8.536948,-0.26975 v -0.0134 l -2.736783,0.0103 c -0.38818,-0.005 -0.973637,-0.0112 -1.674317,-0.0124 z m 47.434827,0.59997 c 0.82229,0.0597 0.98781,2.08799 -0.032,2.14199 -4.30972,0.005 -12.56211,0.058 -16.81912,0.032 -0.80637,-0.0456 -0.71603,-2.00653 0.032,-2.07843 0.88187,0.0198 14.59983,-0.1133 16.81912,-0.0956 z m -45.822005,2.08411 c 4.174245,-0.0269 8.515245,0.19994 11.687145,0.63872 0.4778,0.14589 0.90359,0.4686 1.24695,0.83147 2.13456,2.25583 2.96886,4.42528 4.73253,8.02535 0.0227,0.51914 -0.4034,1.05564 -0.85266,1.31672 -1.16036,-0.0461 -7.59039,-1.18928 -16.510108,-1.12448 -8.919701,0.0648 -13.780782,1.33272 -14.644067,1.21491 -0.490063,-0.20049 -0.979714,-0.68721 -1.023194,-1.21491 -0.04892,-0.72011 4.407118,-8.17794 5.083928,-8.5695 0.401259,-0.34084 1.029701,-0.48978 1.470711,-0.57568 2.416308,-0.34748 5.562148,-0.52168 8.808765,-0.5426 z m 45.822005,1.01802 c 0.8223,0.0597 0.98781,2.08799 -0.032,2.14199 -4.30972,0.005 -12.5621,0.058 -16.81912,0.032 -0.80637,-0.0456 -0.71603,-2.00652 0.032,-2.07842 0.88187,0.0198 14.59983,-0.11331 16.81912,-0.0956 z m 0,3.10162 c 0.82231,0.0597 0.98781,2.08851 -0.032,2.14251 -4.30972,0.005 -12.56209,0.058 -16.81912,0.032 -0.80637,-0.0456 -0.71603,-2.00653 0.032,-2.07843 0.88187,0.0198 14.59983,-0.11384 16.81912,-0.0961 z m 0,3.10214 c 0.82232,0.0597 0.98781,2.0885 -0.032,2.1425 -4.30972,0.005 -12.56208,0.058 -16.81912,0.032 -0.80637,-0.0456 -0.71603,-2.00652 0.032,-2.07842 0.88187,0.0198 14.59983,-0.11384 16.81912,-0.0961 z m 0,3.10214 c 0.82233,0.0597 0.98781,2.0885 -0.032,2.1425 -4.30972,0.005 -12.56207,0.058 -16.81912,0.032 -0.80637,-0.0456 -0.71603,-2.00653 0.032,-2.07843 0.88187,0.0198 14.59983,-0.11383 16.81912,-0.0961 z m 0,3.10213 c 0.82234,0.0597 0.98781,2.08851 -0.032,2.14251 -4.30972,0.005 -12.56206,0.058 -16.81912,0.032 -0.80637,-0.0456 -0.71603,-2.00653 0.032,-2.07843 0.88187,0.0198 14.59983,-0.11384 16.81912,-0.0961 z m -62.684025,2.39779 c 1.770881,-0.0343 3.319431,0.46134 4.907711,1.0852 1.309088,0.63489 2.45187,1.74295 3.21014,2.82619 0.383069,0.5713 0.754049,1.6167 -0.768429,2.10271 -1.494288,0.26622 -5.313146,-0.26822 -7.823295,-0.6103 -0.478534,-0.23954 -1.393268,-0.18003 -2.374015,-2.84892 -0.165941,-0.95566 -0.197241,-1.84375 1.582849,-2.44171 0.43557,-0.0694 0.856373,-0.10525 1.265039,-0.11317 z m 36.463405,0.0403 c 0.40867,0.008 0.82895,0.0443 1.26452,0.11368 1.7801,0.59796 1.74879,1.48606 1.58285,2.44172 -0.98075,2.66886 -1.89548,2.60938 -2.37401,2.84892 -2.51016,0.34208 -6.32849,0.87652 -7.82278,0.6103 -1.52248,-0.48601 -1.15203,-1.53142 -0.76895,-2.10272 0.75827,-1.08324 1.90155,-2.19129 3.21066,-2.82618 1.58827,-0.62388 3.13683,-1.12005 4.90771,-1.08572 z m 26.22062,0.66404 c 0.82235,0.0597 0.98781,2.0885 -0.032,2.1425 -4.30972,0.005 -12.56205,0.058 -16.81912,0.032 -0.80637,-0.0456 -0.71603,-2.00652 0.032,-2.07842 0.88187,0.0198 14.59983,-0.11384 16.81912,-0.0961 z m -44.495471,1.49293 c 2.879181,-0.006 5.785521,0.0727 7.355111,0.25166 0.44536,0.47555 0.34511,1.50246 -0.12816,1.95027 -0.76872,0.58546 -13.494831,0.59684 -14.11697,0.032 -0.542749,-0.45446 -0.66464,-1.5538 -0.303341,-1.98231 1.462229,-0.15645 4.314183,-0.24601 7.19336,-0.25166 z m 44.495471,1.6092 c 0.82236,0.0597 0.98781,2.08851 -0.032,2.14251 -4.30972,0.005 -12.56204,0.058 -16.81912,0.032 -0.80637,-0.0456 -0.71603,-2.00653 0.032,-2.07843 0.88187,0.0198 14.59983,-0.11384 16.81912,-0.0961 z m 0,3.10214 c 0.82237,0.0597 0.98781,2.08851 -0.032,2.14251 -4.30972,0.005 -12.56203,0.058 -16.81912,0.032 -0.80637,-0.0456 -0.71603,-2.00652 0.032,-2.07842 0.88187,0.0198 14.59983,-0.11384 16.81912,-0.0961 z m -28.03394,1.52239 a 2.0144145,2.0144145 0 0 1 2.01434,2.01435 2.0144145,2.0144145 0 0 1 -2.01434,2.01434 2.0144145,2.0144145 0 0 1 -2.01435,-2.01434 2.0144145,2.0144145 0 0 1 2.01435,-2.01435 z m -32.784049,0.0455 a 2.0144145,2.0144145 0 0 1 2.014347,2.01435 2.0144145,2.0144145 0 0 1 -2.014347,2.01435 2.0144145,2.0144145 0 0 1 -2.014348,-2.01435 2.0144145,2.0144145 0 0 1 2.014348,-2.01435 z m 60.817989,1.53428 c 0.82238,0.0597 0.98781,2.0885 -0.032,2.1425 -4.30972,0.005 -12.56202,0.058 -16.81912,0.032 -0.80637,-0.0456 -0.71603,-2.00652 0.032,-2.07842 0.88187,0.0198 14.59983,-0.11383 16.81912,-0.0961 z m 0,3.10213 c 0.82239,0.0597 0.98781,2.08851 -0.032,2.14251 -4.30972,0.005 -12.56201,0.0575 -16.81912,0.0315 -0.80637,-0.0456 -0.71603,-2.00653 0.032,-2.07843 0.88187,0.0198 14.59983,-0.1133 16.81912,-0.0956 z m 0,3.10214 c 0.8224,0.0597 0.98781,2.08799 -0.032,2.14199 -4.30972,0.005 -12.562,0.058 -16.81912,0.032 -0.80637,-0.0456 -0.71603,-2.00653 0.032,-2.07843 0.88187,0.0198 14.59983,-0.1133 16.81912,-0.0956 z" /></g></svg>
