<?xml version="1.0" encoding="UTF-8" standalone="no"?>
<!-- Created with Inkscape (http://www.inkscape.org/) -->

<svg
   width="149.99998mm"
   height="49.063438mm"
   viewBox="0 0 149.99998 49.063438"
   version="1.1"
   id="svg1"
   xml:space="preserve"
   inkscape:version="1.3.2 (091e20e, 2023-11-25, custom)"
   sodipodi:docname="coupe.svg"
   xmlns:inkscape="http://www.inkscape.org/namespaces/inkscape"
   xmlns:sodipodi="http://sodipodi.sourceforge.net/DTD/sodipodi-0.dtd"
   xmlns="http://www.w3.org/2000/svg"
   xmlns:svg="http://www.w3.org/2000/svg"><sodipodi:namedview
     id="namedview1"
     pagecolor="#ffffff"
     bordercolor="#000000"
     borderopacity="0.25"
     inkscape:showpageshadow="2"
     inkscape:pageopacity="0.0"
     inkscape:pagecheckerboard="0"
     inkscape:deskcolor="#d1d1d1"
     inkscape:document-units="mm"
     inkscape:zoom="1.0343421"
     inkscape:cx="715.91401"
     inkscape:cy="361.0991"
     inkscape:window-width="1920"
     inkscape:window-height="1017"
     inkscape:window-x="1272"
     inkscape:window-y="-8"
     inkscape:window-maximized="1"
     inkscape:current-layer="layer1" /><defs
     id="defs1" /><g
     inkscape:label="Vrstva 1"
     inkscape:groupmode="layer"
     id="layer1"
     transform="translate(-36.774777,-101.47387)"><path
       id="path1"
       style="fill:#808080;stroke-width:0.261948;image-rendering:auto"
       d="m 126.79763,101.48988 c -7.87579,0.0637 -15.88741,0.5292 -18.23325,1.37089 -0.33279,0.0446 -18.08249,4.92448 -28.811714,14.36876 -16.564439,0.17908 -35.053995,4.76102 -37.247264,6.44638 -2.896561,1.72573 -5.52811,7.90955 -5.730624,12.71471 0.216789,2.78116 1.105886,5.93102 2.865056,8.05798 h 7.521283 c 0,0 -2.864979,-18.28794 13.408463,-19.67578 5.090052,-0.0222 16.366498,0.88011 15.601766,21.10882 l 67.869584,-0.35814 c -0.55661,-5.00842 -1.1026,-20.446 12.86256,-20.66626 12.11536,-0.19109 16.96545,8.47029 16.14767,18.87509 l 11.33179,0.19185 c 3.22895,0.25325 2.45251,-10.79436 1.85104,-11.04761 -0.85472,-0.34821 -1.4929,0.27949 -1.74615,0.0895 -0.0925,-1.76842 1.14483,-7.50742 -1.11067,-14.45033 -3.84784,-1.43007 -17.66907,-4.17084 -22.5733,-4.78952 -4.65032,-4.16682 -14.23272,-9.72292 -22.4055,-11.88765 -3.67567,-0.47831 -11.60074,-0.34869 -11.60074,-0.34869 z m 13.74839,6.58849 c 3.00204,1.3474 5.8653,5.41359 6.83059,8.30947 0.15829,1.32958 -5.36389,1.74847 -9.29703,1.80884 -3.86592,0.11992 -5.64792,0.0825 -9.38336,0.019 l 0.7096,-13.09568 c 6.23097,0.065 8.40158,1.72918 11.1402,2.95835 z m -18.39719,-2.89182 -1.02937,13.25061 -26.376667,0.63058 -0.440246,-2.73408 -4.834782,0.0895 c 3.894882,-4.38733 14.900755,-11.19279 32.681065,-11.23664 z m -60.661408,22.96649 c -6.230879,-2.4e-4 -11.282143,5.01071 -11.282182,11.19213 4.4e-5,6.18143 5.051307,11.19238 11.282182,11.19214 6.230676,-4e-5 11.281625,-5.01091 11.28167,-11.19214 -4e-5,-6.18122 -5.050991,-11.19209 -11.28167,-11.19213 z m 96.163048,0 c -6.23068,0 -11.28169,5.01091 -11.28168,11.19213 0,6.18123 5.051,11.1921 11.28168,11.19214 6.23067,-4e-5 11.28161,-5.01091 11.28166,-11.19214 -4e-5,-6.18122 -5.05099,-11.19213 -11.28166,-11.19213 z"
       sodipodi:nodetypes="ccccccccccscccccccccccccccsccccssccssccsscc" /></g></svg>
