<?xml version="1.0" encoding="UTF-8" standalone="no"?>
<!-- Created with Inkscape (http://www.inkscape.org/) -->

<svg
   width="150mm"
   height="51.0844mm"
   viewBox="0 0 150 51.0844"
   version="1.1"
   id="svg1"
   xml:space="preserve"
   inkscape:version="1.3.2 (091e20e, 2023-11-25, custom)"
   sodipodi:docname="hatchback.svg"
   xmlns:inkscape="http://www.inkscape.org/namespaces/inkscape"
   xmlns:sodipodi="http://sodipodi.sourceforge.net/DTD/sodipodi-0.dtd"
   xmlns="http://www.w3.org/2000/svg"
   xmlns:svg="http://www.w3.org/2000/svg"><sodipodi:namedview
     id="namedview1"
     pagecolor="#ffffff"
     bordercolor="#000000"
     borderopacity="0.25"
     inkscape:showpageshadow="2"
     inkscape:pageopacity="0.0"
     inkscape:pagecheckerboard="0"
     inkscape:deskcolor="#d1d1d1"
     inkscape:document-units="mm"
     inkscape:zoom="1.0343421"
     inkscape:cx="511.91961"
     inkscape:cy="530.28877"
     inkscape:window-width="1920"
     inkscape:window-height="1017"
     inkscape:window-x="1272"
     inkscape:window-y="-8"
     inkscape:window-maximized="1"
     inkscape:current-layer="layer1" /><defs
     id="defs1" /><g
     inkscape:label="Vrstva 1"
     inkscape:groupmode="layer"
     id="layer1"
     transform="translate(-30.50615,-107.62648)"><path
       id="path1"
       style="fill:#808080;stroke-width:0.272646;image-rendering:auto"
       d="m 124.20563,107.66031 c -8.19744,0.0663 -16.53628,0.55082 -18.97792,1.42688 -0.34637,0.0464 -18.820999,5.12559 -29.988415,14.95559 -17.240946,0.18639 -36.485632,4.95547 -38.768477,6.70966 -3.01486,1.79621 -5.753883,8.23257 -5.964668,13.23398 0.225642,2.89475 1.151052,6.17325 2.982068,8.38708 h 7.828459 c 0,0 -2.981988,-19.03483 13.956078,-20.47936 5.297933,-0.0232 17.03492,0.91605 16.238956,21.97092 l 70.641449,-0.37276 c -0.57934,-5.21297 -1.14227,-21.05386 13.38788,-21.51029 12.6117,0.0284 17.65834,8.81622 16.80716,19.64596 l 5.66844,0.19969 c 3.36082,0.26359 2.55267,-11.2352 1.92664,-11.4988 -0.88963,-0.36243 -1.55388,0.2909 -1.81747,0.0931 -0.0962,-1.84065 -0.12789,-11.20698 -2.47552,-18.43344 -5.84224,-7.31238 -20.31465,-12.91875 -24.19612,-14.05958 -7.18754,-0.29003 -17.04374,-0.35125 -27.24854,-0.26868 z m 22.25435,4.23143 c 5.20599,3.42672 6.07338,4.69688 6.07338,4.69688 0,0 2.31716,2.25864 3.63514,6.21254 0.16474,1.38387 -3.49708,1.7142 -7.59086,1.77703 -7.46388,0.21906 -18.50788,0.55693 -22.39588,0.49104 l 0.73857,-13.63052 c 0,0 13.6747,-0.73314 19.53965,0.45303 z m -27.09302,-0.3838 -1.07141,13.7918 -27.453916,0.65633 -0.458227,-2.84575 -5.032239,0.0931 c 4.053952,-4.56648 15.509312,-11.64988 34.015792,-11.69553 z m -63.138879,23.90448 c -6.485353,-2.5e-4 -11.742915,5.21535 -11.742956,11.64923 4.7e-5,6.43388 5.257607,11.64948 11.742956,11.64923 6.485143,-4e-5 11.742378,-5.21556 11.742425,-11.64923 -4.1e-5,-6.43368 -5.257279,-11.64919 -11.742425,-11.64923 z m 100.090439,0 c -6.48515,4e-5 -11.74238,5.21555 -11.74243,11.64923 6e-5,6.43367 5.25728,11.64919 11.74243,11.64923 6.48515,-4e-5 11.74237,-5.21556 11.74243,-11.64923 -5e-5,-6.43368 -5.25728,-11.64919 -11.74243,-11.64923 z"
       sodipodi:nodetypes="sccccccccccccccccscccccccccccccccccccccccc" /></g></svg>
