<?xml version="1.0" encoding="UTF-8" standalone="no"?>
<!-- Created with Inkscape (http://www.inkscape.org/) -->

<svg
   width="150mm"
   height="42.852158mm"
   viewBox="0 0 150 42.852158"
   version="1.1"
   id="svg1"
   xml:space="preserve"
   xmlns="http://www.w3.org/2000/svg"
   xmlns:svg="http://www.w3.org/2000/svg"><defs
     id="defs1" /><g
     id="layer1"
     transform="translate(-34.896062,-94.316716)"><path
       id="path1"
       style="fill:#808080;stroke-width:0.260794;image-rendering:auto"
       d="m 184.66054,94.316724 c -1.43543,-3.78e-4 -15.24704,3.425043 -19.74279,5.627269 -1.17581,1.393777 -1.52942,5.447237 -0.96646,6.445367 0.90489,0.49123 16.55954,0.18888 18.27652,-0.0463 0.50465,-0.54726 3.31245,-10.326073 2.53217,-12.015298 -0.0198,-0.0073 -0.0531,-0.01104 -0.0994,-0.01105 z m -70.55867,4.111547 c -1.39007,0.0055 -2.61393,0.01872 -3.49705,0.02104 -18.533643,1.445655 -35.538189,6.685589 -52.785634,13.449999 0,0 -20.603803,9.71621 -22.923125,12.7508 0.215834,2.76889 7.085644,8.39039 8.837065,10.50798 l 10.526928,-0.0915 c 0,0 -6.443574,-19.58888 11.967943,-23.54866 5.620068,-0.20625 18.504515,0.60007 15.717526,23.0415 l 64.651517,0.0921 c -0.55417,-4.98636 -2.13903,-24.13222 15.54075,-23.04939 12.04091,0.73746 14.02611,10.77671 13.34214,23.08884 l 6.18969,0.40564 c 3.21471,0.25214 3.08626,-7.70844 2.48744,-7.96057 -0.85096,-0.34668 -1.48613,0.27861 -1.73827,0.0894 -0.0921,-1.76063 1.7841,-9.03987 1.10378,-15.8601 -3.83089,-1.42377 -21.64224,-4.06063 -26.52487,-4.67659 -12.65737,-3.52337 -21.40873,-5.69857 -30.63379,-7.578616 -2.42806,-0.643006 -8.09183,-0.698245 -12.26204,-0.681837 z m -0.54189,2.807849 c 3.43973,-0.0415 6.19489,0.21911 7.67804,0.81968 -1.00395,5.70578 -2.85155,9.52359 -4.13049,9.54573 l -28.734524,0.4977 0.213073,-3.50337 -8.589792,0.15416 c 6.765826,-4.54554 23.244523,-7.38952 33.563693,-7.5139 z m 11.49655,4.90334 c 2.06211,0.64971 4.37342,2.7653 5.11484,3.45865 0.15759,1.32371 -1.16113,1.47257 -1.16113,1.47257 0,0 -2.17028,0.17424 -5.88927,0.11101 z m -57.914681,8.74394 c -6.203425,-2.4e-4 -11.232403,4.98829 -11.232441,11.14248 4.3e-5,6.15419 5.029019,11.14323 11.232441,11.143 6.203225,-4e-5 11.23187,-4.98901 11.231916,-11.143 -4.1e-5,-6.154 -5.028688,-11.14244 -11.231916,-11.14248 z m 93.525991,0 c -6.20322,0 -11.23192,4.98848 -11.23191,11.14248 0,6.15399 5.02869,11.14296 11.23191,11.143 6.20323,-4e-5 11.23186,-4.98901 11.23191,-11.143 -4e-5,-6.154 -5.02868,-11.14248 -11.23191,-11.14248 z" /></g></svg>
